<svg id="Layer_4" data-name="Layer 4" xmlns="http://www.w3.org/2000/svg" viewBox="0 0 502.33 294.32"><defs><style>.cls-1{fill:#3a53a4;}.cls-2{fill:#fff;}</style></defs><polygon class="cls-1" points="109.51 127.76 136.88 114.08 91.26 91.26 109.51 127.76"/><polygon class="cls-1" points="114.08 224.75 114.52 224.53 80.98 157.44 69.58 180.25 84.41 209.91 114.08 224.75"/><polygon class="cls-1" points="69.58 114.07 83.04 141 101.29 131.88 80.98 91.26 69.58 114.07"/><polygon class="cls-1" points="169.97 64.43 147.16 53.03 124.35 64.43 147.16 75.84 169.97 64.43"/><polygon class="cls-1" points="113.61 135.98 147.16 203.06 180.7 135.98 147.16 119.21 113.61 135.98"/><polygon class="cls-1" points="224.75 114.07 213.34 91.26 193.03 131.88 211.29 141 224.75 114.07"/><polygon class="cls-1" points="203.06 91.26 157.44 114.08 184.82 127.76 203.06 91.26"/><polygon class="cls-1" points="224.52 47.44 223.62 47.89 225.12 48.64 224.52 47.44"/><polygon class="cls-1" points="220.41 39.22 211.29 20.97 190.53 31.35 213.34 42.75 220.41 39.22"/><polygon class="cls-1" points="180.25 59.3 203.06 47.89 180.25 36.49 157.44 47.89 180.25 59.3"/><polygon class="cls-1" points="141 211.29 105.4 140.09 87.14 149.21 122.75 220.41 141 211.29"/><polygon class="cls-1" points="207.18 149.21 188.93 140.09 153.32 211.29 171.58 220.41 207.18 149.21"/><polygon class="cls-1" points="241.3 147.16 229.89 124.35 218.75 146.62 218.48 147.16 229.89 169.97 241.3 147.16"/><polygon class="cls-1" points="209.92 209.91 224.75 180.26 213.34 157.44 179.79 224.53 180.25 224.75 209.92 209.91"/><polygon class="cls-1" points="48.64 69.2 47.44 69.8 47.89 70.7 48.64 69.2"/><polygon class="cls-1" points="246.88 69.8 245.68 69.2 246.44 70.7 246.88 69.8"/><polygon class="cls-1" points="167.47 228.63 150.72 220.25 147.38 218.38 145.11 219.51 142.87 220.62 126.85 228.63 128.53 231.97 147.16 241.29 165.8 231.97 167.47 228.63"/><polygon class="cls-1" points="245.68 225.12 246.88 224.53 246.44 223.62 245.68 225.12"/><polygon class="cls-1" points="246.44 157.44 235.03 180.26 246.44 203.06 257.84 180.26 246.44 157.44"/><polygon class="cls-1" points="91.26 80.98 147.16 108.93 203.06 80.98 180.25 69.58 147.16 86.12 114.08 69.58 91.26 80.98"/><polygon class="cls-1" points="246.44 136.88 257.84 114.08 246.44 91.26 235.03 114.07 246.44 136.88"/><polygon class="cls-1" points="190.53 64.43 213.34 75.84 213.38 75.83 216.76 77.47 218.49 80.96 218.48 80.98 219.35 82.72 229.89 103.79 241.3 80.98 231.98 62.35 213.34 53.03 190.53 64.43"/><polygon class="cls-1" points="47.89 136.88 59.3 114.07 47.89 91.26 36.48 114.08 47.89 136.88"/><polygon class="cls-1" points="158.94 245.68 157.44 246.43 158.34 246.89 158.94 245.68"/><polygon class="cls-1" points="75.85 147.16 75.18 145.85 74.81 145.11 64.44 124.35 53.03 147.16 64.44 169.97 75.85 147.16"/><polygon class="cls-1" points="169.97 31.35 147.16 19.94 124.35 31.35 147.16 42.75 169.97 31.35"/><polygon class="cls-1" points="47.89 157.44 36.48 180.26 47.89 203.06 59.3 180.25 47.89 157.44"/><polygon class="cls-1" points="47.44 224.53 48.64 225.12 47.89 223.62 47.44 224.53"/><polygon class="cls-1" points="229.89 190.53 216.77 216.77 190.53 229.88 213.34 241.29 231.98 231.97 241.3 213.35 229.89 190.53"/><polygon class="cls-1" points="224.52 246.89 225.12 245.68 223.62 246.43 224.52 246.89"/><polygon class="cls-1" points="180.25 235.03 172.65 238.83 166.56 251 180.25 257.83 203.06 246.43 180.25 235.03"/><polygon class="cls-1" points="190.53 262.97 211.29 273.36 220.41 255.1 213.34 251.57 190.53 262.97"/><polygon class="cls-1" points="157.44 269.24 169.97 262.97 162.46 259.21 157.44 269.24"/><polygon class="cls-1" points="140.09 255.1 147.16 269.24 154.23 255.1 147.16 251.57 140.09 255.1"/><polygon class="cls-1" points="135.99 246.89 136.88 246.43 135.38 245.68 135.99 246.89"/><path class="cls-1" d="M-3.16-3.16V291.16H291.16V-3.16ZM282.52,75.77,265,110.92,281.5,144,265,177.1l17.57,35.13-26.47,13.24,30.58,61.17-61.15-30.59-13.24,26.47L177.09,265l-29.66,14.83L144,286.64l-3.42-6.85L110.91,265,75.77,282.52,62.53,256.05,1.36,286.64l30.58-61.17L5.47,212.23,23.05,177.1,6.51,144l16.54-33.07L5.47,75.77,31.94,62.53,1.36,1.36,62.53,32,75.77,5.48,110.91,23,144,6.5,177.09,23,212.24,5.48,225.48,32,286.63,1.36,256.05,62.53Z" transform="translate(3.16 3.16)"/><polygon class="cls-1" points="232.74 43.33 238.83 55.49 251 61.58 269.24 25.08 232.74 43.33"/><polygon class="cls-1" points="114.08 59.3 136.88 47.89 114.08 36.49 91.26 47.89 114.08 59.3"/><polygon class="cls-1" points="251.57 80.98 262.98 103.79 273.36 83.03 255.11 73.91 251.57 80.98"/><polygon class="cls-1" points="238.83 238.83 232.74 251 269.24 269.24 251 232.74 238.83 238.83"/><polygon class="cls-1" points="251.57 213.35 255.11 220.41 273.36 211.29 262.98 190.53 251.57 213.35"/><polygon class="cls-1" points="251.57 147.16 262.98 169.97 274.39 147.16 262.98 124.35 251.57 147.16"/><polygon class="cls-1" points="124.35 262.98 136.88 269.24 131.87 259.21 124.35 262.98"/><polygon class="cls-1" points="42.76 147.16 31.35 124.35 19.94 147.16 31.35 169.97 42.76 147.16"/><polygon class="cls-1" points="55.5 55.49 61.58 43.33 25.08 25.08 43.33 61.58 55.5 55.49"/><polygon class="cls-1" points="42.76 80.99 39.22 73.91 20.96 83.03 31.35 103.79 42.76 80.99"/><polygon class="cls-1" points="64.44 103.79 74.15 84.36 74.72 83.24 77.61 77.52 80.97 75.84 80.98 75.84 86.28 73.19 103.79 64.43 80.98 53.03 62.35 62.35 53.03 80.99 64.44 103.79"/><polygon class="cls-1" points="103.79 31.35 83.04 20.97 73.91 39.22 80.98 42.75 103.79 31.35"/><polygon class="cls-1" points="69.81 47.44 69.2 48.64 70.7 47.89 69.81 47.44"/><polygon class="cls-1" points="73.91 255.1 83.04 273.36 103.79 262.97 80.98 251.57 73.91 255.1"/><polygon class="cls-1" points="69.81 246.89 70.7 246.43 69.2 245.68 69.81 246.89"/><polygon class="cls-1" points="121.68 238.83 114.08 235.03 91.26 246.43 114.08 257.83 127.76 251 121.68 238.83"/><polygon class="cls-1" points="43.33 232.74 25.08 269.24 61.58 251 55.5 238.83 43.33 232.74"/><polygon class="cls-1" points="42.76 213.34 31.35 190.53 20.96 211.29 39.22 220.41 42.76 213.34"/><polygon class="cls-1" points="103.79 229.89 77.56 216.77 64.44 190.53 53.03 213.34 62.35 231.97 80.98 241.29 103.79 229.89"/><path class="cls-2" d="M499.17,124.6c0,.14,0,.28,0,.42H484c0-.14,0-.28,0-.42a29.52,29.52,0,0,0-16-26.23,26.08,26.08,0,0,1,4.54-.39A26.62,26.62,0,0,1,499.17,124.6Z" transform="translate(3.16 3.16)"/><path class="cls-2" d="M485.86,84.07a13.3,13.3,0,0,1-20,11.52,16.14,16.14,0,0,0,0-23,13.3,13.3,0,0,1,20,11.53Z" transform="translate(3.16 3.16)"/><path class="cls-2" d="M481.16,124.6c0,.14,0,.28,0,.42H427.92c0-.14,0-.28,0-.42a26.63,26.63,0,0,1,33.27-25.78h0c.8.21,1.59.45,2.35.73A26.61,26.61,0,0,1,481.16,124.6Z" transform="translate(3.16 3.16)"/><path class="cls-2" d="M467.85,84.07a13.35,13.35,0,0,1-7,11.72h0a13.3,13.3,0,0,1-12.61,0h0a13.31,13.31,0,1,1,19.63-11.72Z" transform="translate(3.16 3.16)"/></svg>