<svg xmlns="http://www.w3.org/2000/svg" viewBox="0 0 71.26 54.27"><defs><style>.cls-1{fill:#fff;}</style></defs><g id="Layer_2" data-name="Layer 2"><g id="Layer_4" data-name="Layer 4"><path class="cls-1" d="M71.26,53.85c0,.14,0,.28,0,.42H56.12c0-.14,0-.28,0-.42a29.52,29.52,0,0,0-16-26.23,26.08,26.08,0,0,1,4.54-.39A26.62,26.62,0,0,1,71.26,53.85Z"/><path class="cls-1" d="M58,13.32A13.3,13.3,0,0,1,38,24.84a16.14,16.14,0,0,0,0-23A13.3,13.3,0,0,1,58,13.32Z"/><path class="cls-1" d="M53.25,53.85c0,.14,0,.28,0,.42H0c0-.14,0-.28,0-.42A26.63,26.63,0,0,1,33.27,28.07h0c.8.21,1.59.45,2.35.73A26.61,26.61,0,0,1,53.25,53.85Z"/><path class="cls-1" d="M39.94,13.32a13.35,13.35,0,0,1-7,11.72h0a13.3,13.3,0,0,1-12.61,0h0A13.31,13.31,0,1,1,39.94,13.32Z"/></g></g></svg>