<svg xmlns="http://www.w3.org/2000/svg" viewBox="0 0 180 180"><defs><style>.cls-1{fill:#2b2926;}</style></defs><g id="Layer_2" data-name="Layer 2"><g id="Layer_4" data-name="Layer 4"><path class="cls-1" d="M168.57,0H11.44A11.44,11.44,0,0,0,0,11.43V168.57A11.44,11.44,0,0,0,11.44,180H168.57A11.43,11.43,0,0,0,180,168.57V11.43A11.43,11.43,0,0,0,168.57,0ZM170,50.61,159.82,70.9,169.37,90l-9.55,19.11L170,129.39,154.68,137l17.66,35.32L137,154.68,129.39,170,109.1,159.82,92,168.39l-2,4-2-4L70.9,159.82,50.61,170,43,154.68,7.66,172.34,25.32,137,10,129.39,20.18,109.1,10.63,90,20.18,70.9,10,50.61,25.32,43,7.66,7.66,43,25.32,50.61,10,70.9,20.17,90,10.62l19.1,9.55L129.39,10,137,25.32,172.34,7.66,154.68,43Z"/><polygon class="cls-1" points="147.56 134.66 146.87 135 147.31 134.13 147.56 134.66"/><polygon class="cls-1" points="135 146.87 134.66 147.56 134.13 147.3 135 146.87"/><polygon class="cls-1" points="96.8 146.87 96.45 147.56 95.93 147.3 96.8 146.87"/><polygon class="cls-1" points="84.06 147.3 83.55 147.56 83.19 146.87 84.06 147.3"/><polygon class="cls-1" points="33.13 135 32.43 134.66 32.7 134.13 33.13 135"/><polygon class="cls-1" points="33.13 44.99 32.7 45.86 32.43 45.34 33.13 44.99"/><polygon class="cls-1" points="135 33.13 134.13 32.69 134.66 32.43 135 33.13"/><polygon class="cls-1" points="147.56 45.34 147.31 45.86 146.87 44.99 147.56 45.34"/><polygon class="cls-1" points="122.27 57.73 111.73 78.8 95.93 70.9 122.27 57.73"/><polygon class="cls-1" points="134.79 70.89 127.02 86.44 116.47 81.17 128.21 57.73 134.79 70.89"/><polygon class="cls-1" points="144.34 90 137.75 103.17 131.17 90 131.32 89.69 137.75 76.83 144.34 90"/><polygon class="cls-1" points="153.89 70.9 147.31 84.06 140.72 70.89 147.31 57.73 153.89 70.9"/><polygon class="cls-1" points="153.89 109.11 147.31 122.27 140.72 109.11 147.31 95.93 153.89 109.11"/><polygon class="cls-1" points="134.79 109.11 126.22 126.22 109.1 134.78 108.83 134.66 128.21 95.93 134.79 109.11"/><polygon class="cls-1" points="144.34 128.21 138.96 138.96 128.21 144.34 115.03 137.75 130.18 130.18 137.75 115.03 144.34 128.21"/><polygon class="cls-1" points="132.28 152.31 127.02 162.84 115.03 156.85 128.21 150.27 132.28 152.31"/><polygon class="cls-1" points="122.27 147.3 109.1 153.88 101.19 149.94 104.71 142.91 109.1 140.72 122.27 147.3"/><polygon class="cls-1" points="103.17 156.85 95.93 160.47 98.83 154.68 103.17 156.85"/><polygon class="cls-1" points="94.08 152.31 90 160.47 85.92 152.31 90 150.27 94.08 152.31"/><polygon class="cls-1" points="101.72 137.03 100.76 138.96 90 144.34 79.24 138.96 78.28 137.03 87.52 132.41 88.81 131.76 90.13 131.11 92.05 132.19 101.72 137.03"/><polygon class="cls-1" points="124.64 91.18 104.09 132.28 93.56 127.02 114.11 85.92 124.64 91.18"/><rect class="cls-1" x="65.01" y="86.12" width="11.78" height="45.96" transform="translate(-41.29 43.2) rotate(-26.55)"/><polygon class="cls-1" points="63.52 81.17 52.98 86.44 45.21 70.89 51.8 57.73 63.52 81.17"/><polygon class="cls-1" points="84.06 70.9 68.27 78.8 57.73 57.73 84.06 70.9"/><polygon class="cls-1" points="109.36 83.54 90 122.27 70.64 83.54 90 73.86 109.36 83.54"/><polygon class="cls-1" points="122.27 51.79 90 67.93 57.73 51.79 70.9 45.21 90 54.77 109.1 45.21 122.27 51.79"/><polygon class="cls-1" points="144.34 51.79 137.75 64.97 131.67 52.8 131.17 51.79 131.18 51.78 130.18 49.77 128.22 48.82 128.21 48.83 115.03 42.24 128.21 35.66 138.96 41.04 144.34 51.79"/><polygon class="cls-1" points="132.28 27.69 128.21 29.73 115.03 23.14 127.02 17.15 132.28 27.69"/><polygon class="cls-1" points="122.27 32.69 109.1 39.27 95.93 32.69 109.1 26.11 122.27 32.69"/><polygon class="cls-1" points="103.17 42.24 90 48.83 76.83 42.24 90 35.66 103.17 42.24"/><polygon class="cls-1" points="103.17 23.14 90 29.73 76.83 23.14 90 16.56 103.17 23.14"/><polygon class="cls-1" points="39.28 70.89 32.7 84.06 26.11 70.9 32.7 57.73 39.28 70.89"/><polygon class="cls-1" points="71.16 134.66 70.9 134.78 53.77 126.22 45.21 109.09 51.8 95.93 71.16 134.66"/><polygon class="cls-1" points="39.28 109.09 32.7 122.27 26.11 109.11 32.7 95.93 39.28 109.09"/><polygon class="cls-1" points="48.83 90 42.24 103.17 35.66 90 42.24 76.83 48.23 88.81 48.45 89.24 48.83 90"/><polygon class="cls-1" points="160.47 19.52 149.94 40.59 142.91 37.08 139.4 30.05 160.47 19.52"/><polygon class="cls-1" points="84.06 32.69 70.9 39.27 57.73 32.69 70.9 26.11 84.06 32.69"/><polygon class="cls-1" points="162.84 52.98 156.85 64.97 150.27 51.79 152.31 47.72 162.84 52.98"/><polygon class="cls-1" points="160.47 160.47 139.4 149.94 142.91 142.91 149.94 139.4 160.47 160.47"/><polygon class="cls-1" points="162.84 127.02 152.31 132.28 150.27 128.21 156.85 115.03 162.84 127.02"/><polygon class="cls-1" points="163.44 90 156.85 103.17 150.27 90 156.85 76.83 163.44 90"/><polygon class="cls-1" points="84.06 160.47 76.83 156.86 81.17 154.68 84.06 160.47"/><polygon class="cls-1" points="29.73 90 23.14 103.17 16.56 90 23.14 76.83 29.73 90"/><polygon class="cls-1" points="40.59 30.05 37.09 37.08 30.06 40.59 19.52 19.52 40.59 30.05"/><polygon class="cls-1" points="29.73 51.8 23.14 64.97 17.15 52.98 27.69 47.72 29.73 51.8"/><polygon class="cls-1" points="64.96 42.24 54.85 47.3 51.8 48.83 51.79 48.83 49.84 49.8 48.18 53.1 47.85 53.75 42.24 64.97 35.66 51.8 41.04 41.04 51.8 35.66 64.96 42.24"/><polygon class="cls-1" points="64.96 23.14 51.8 29.73 47.71 27.69 52.98 17.15 64.96 23.14"/><polygon class="cls-1" points="45.86 32.69 44.99 33.13 45.34 32.43 45.86 32.69"/><polygon class="cls-1" points="64.96 156.85 52.98 162.84 47.71 152.31 51.8 150.27 64.96 156.85"/><polygon class="cls-1" points="45.86 147.3 45.34 147.56 44.99 146.87 45.86 147.3"/><polygon class="cls-1" points="78.8 149.94 70.9 153.88 57.73 147.3 70.9 140.72 75.29 142.91 78.8 149.94"/><polygon class="cls-1" points="40.59 149.94 19.52 160.47 30.06 139.4 37.09 142.91 40.59 149.94"/><polygon class="cls-1" points="29.73 128.2 27.69 132.28 17.15 127.02 23.14 115.03 29.73 128.2"/><polygon class="cls-1" points="64.96 137.75 51.8 144.34 41.04 138.96 35.66 128.2 42.24 115.03 49.82 130.18 64.96 137.75"/></g></g></svg>